<?xml version="1.0" encoding="UTF-8" standalone="no"?>
<svg
   xmlns:dc="http://purl.org/dc/elements/1.1/"
   xmlns:cc="http://creativecommons.org/ns#"
   xmlns:rdf="http://www.w3.org/1999/02/22-rdf-syntax-ns#"
   xmlns:svg="http://www.w3.org/2000/svg"
   xmlns="http://www.w3.org/2000/svg"
   xmlns:sodipodi="http://sodipodi.sourceforge.net/DTD/sodipodi-0.dtd"
   xmlns:inkscape="http://www.inkscape.org/namespaces/inkscape"
   width="24"
   height="24"
   viewBox="0 0 24 24"
   version="1.1"
   id="svg4"
   sodipodi:docname="db_1c2b2d.svg"
   inkscape:version="0.92.5 (2060ec1f9f, 2020-04-08)">
  <metadata
     id="metadata10">
    <rdf:RDF>
      <cc:Work
         rdf:about="">
        <dc:format>image/svg+xml</dc:format>
        <dc:type
           rdf:resource="http://purl.org/dc/dcmitype/StillImage" />
        <dc:title></dc:title>
      </cc:Work>
    </rdf:RDF>
  </metadata>
  <defs
     id="defs8" />
  <sodipodi:namedview
     pagecolor="#ffffff"
     bordercolor="#666666"
     borderopacity="1"
     objecttolerance="10"
     gridtolerance="10"
     guidetolerance="10"
     inkscape:pageopacity="0"
     inkscape:pageshadow="2"
     inkscape:window-width="775"
     inkscape:window-height="480"
     id="namedview6"
     showgrid="false"
     inkscape:zoom="9.8333333"
     inkscape:cx="12"
     inkscape:cy="12"
     inkscape:window-x="0"
     inkscape:window-y="27"
     inkscape:window-maximized="0"
     inkscape:current-layer="svg4" />
  <path
     d="M12.967 21.893c-.703.07-1.377.107-1.959.107-3.412 0-8.008-1.002-8.008-2.614v-2.04c2.117 1.342 5.17 1.78 8.008 1.78.339 0 .681-.007 1.022-.021-.06-.644-.036-1.28.129-2.019-.408.026-.797.04-1.151.04-3.412 0-8.008-1.001-8.008-2.613v-2.364c2.116 1.341 5.17 1.78 8.008 1.78 1.021 0 2.068-.06 3.089-.196 1.91-1.766 4.603-2.193 6.903-1.231v-8.14c0-3.362-5.965-4.362-9.992-4.362-4.225 0-10.008 1.001-10.008 4.361v15.277c0 3.362 6.209 4.362 10.008 4.362 1.081 0 2.359-.086 3.635-.281-.669-.495-1.239-1.115-1.676-1.826zm-1.959-19.893c3.638 0 7.992.909 7.992 2.361 0 1.581-5.104 2.361-7.992 2.361-3.412.001-8.008-.905-8.008-2.361 0-1.584 4.812-2.361 8.008-2.361zm-8.008 4.943c2.117 1.342 5.17 1.78 8.008 1.78 2.829 0 5.876-.438 7.992-1.78v2.372c0 1.753-5.131 2.614-7.992 2.614-3.426-.001-8.008-1.007-8.008-2.615v-2.371zm15.5 7.057c-2.483 0-4.5 2.015-4.5 4.5s2.017 4.5 4.5 4.5 4.5-2.015 4.5-4.5-2.017-4.5-4.5-4.5zm-1.104 7.343l1.177-2.545-1.739.472 1.466-3.034 1.387-.393-.916 1.925 2.063-.557-3.438 4.132z"
     id="path2"
     style="fill:#1c2b2d;fill-opacity:1" />
</svg>
