<?xml version="1.0" encoding="UTF-8" standalone="no"?>
<svg
   xmlns:dc="http://purl.org/dc/elements/1.1/"
   xmlns:cc="http://creativecommons.org/ns#"
   xmlns:rdf="http://www.w3.org/1999/02/22-rdf-syntax-ns#"
   xmlns:svg="http://www.w3.org/2000/svg"
   xmlns="http://www.w3.org/2000/svg"
   xmlns:sodipodi="http://sodipodi.sourceforge.net/DTD/sodipodi-0.dtd"
   xmlns:inkscape="http://www.inkscape.org/namespaces/inkscape"
   width="24"
   height="24"
   viewBox="0 0 24 24"
   version="1.1"
   id="svg1064"
   sodipodi:docname="home.svg"
   inkscape:version="0.92.5 (2060ec1f9f, 2020-04-08)">
  <metadata
     id="metadata1070">
    <rdf:RDF>
      <cc:Work
         rdf:about="">
        <dc:format>image/svg+xml</dc:format>
        <dc:type
           rdf:resource="http://purl.org/dc/dcmitype/StillImage" />
        <dc:title></dc:title>
      </cc:Work>
    </rdf:RDF>
  </metadata>
  <defs
     id="defs1068" />
  <sodipodi:namedview
     pagecolor="#ffffff"
     bordercolor="#666666"
     borderopacity="1"
     objecttolerance="10"
     gridtolerance="10"
     guidetolerance="10"
     inkscape:pageopacity="0"
     inkscape:pageshadow="2"
     inkscape:window-width="960"
     inkscape:window-height="1016"
     id="namedview1066"
     showgrid="false"
     fit-margin-top="0"
     fit-margin-left="0"
     fit-margin-right="0"
     fit-margin-bottom="0"
     inkscape:zoom="26.460816"
     inkscape:cx="8.8077245"
     inkscape:cy="12.700273"
     inkscape:window-x="0"
     inkscape:window-y="27"
     inkscape:window-maximized="0"
     inkscape:current-layer="svg1064" />
  <path
     d="M 12,2 C 17.513999,2 22,6.486 22,12 22,17.514 17.513999,22 12,22 6.486,22 2,17.514 2,12 2,6.486 6.486,2 12,2 Z M 12,0 C 5.373,0 0,5.373 0,12 0,18.627 5.373,24 12,24 18.626999,24 24,18.627 24,12 24,5.373 18.626999,0 12,0 Z"
     id="path1106"
     inkscape:connector-curvature="0"
     sodipodi:nodetypes="ssssssssss" />
  <path
     inkscape:connector-curvature="0"
     d="m 11.847457,8.5093609 5.529661,4.6349491 v 5.076029 h -3.68644 v -3.32056 h -3.686442 v 3.32056 H 6.3177973 V 13.14431 Z m 7.372881,3.1517661 -7.372881,-6.1696013 -7.3728809,6.1612993 0.8362083,0.81077 6.5366726,-5.4612147 6.536673,5.4695167 z"
     id="path1062"
     style="stroke-width:0.58312011" />
</svg>
