<?xml version="1.0" encoding="UTF-8" standalone="no"?>
<svg
   xmlns:dc="http://purl.org/dc/elements/1.1/"
   xmlns:cc="http://creativecommons.org/ns#"
   xmlns:rdf="http://www.w3.org/1999/02/22-rdf-syntax-ns#"
   xmlns:svg="http://www.w3.org/2000/svg"
   xmlns="http://www.w3.org/2000/svg"
   xmlns:sodipodi="http://sodipodi.sourceforge.net/DTD/sodipodi-0.dtd"
   xmlns:inkscape="http://www.inkscape.org/namespaces/inkscape"
   width="24"
   height="24"
   viewBox="0 0 24 24"
   version="1.1"
   id="svg4"
   sodipodi:docname="register.svg"
   inkscape:version="0.92.5 (2060ec1f9f, 2020-04-08)">
  <metadata
     id="metadata10">
    <rdf:RDF>
      <cc:Work
         rdf:about="">
        <dc:format>image/svg+xml</dc:format>
        <dc:type
           rdf:resource="http://purl.org/dc/dcmitype/StillImage" />
        <dc:title></dc:title>
      </cc:Work>
    </rdf:RDF>
  </metadata>
  <defs
     id="defs8" />
  <sodipodi:namedview
     pagecolor="#ffffff"
     bordercolor="#666666"
     borderopacity="1"
     objecttolerance="10"
     gridtolerance="10"
     guidetolerance="10"
     inkscape:pageopacity="0"
     inkscape:pageshadow="2"
     inkscape:window-width="960"
     inkscape:window-height="1016"
     id="namedview6"
     showgrid="false"
     fit-margin-top="0"
     fit-margin-left="0"
     fit-margin-right="0"
     fit-margin-bottom="0"
     inkscape:zoom="9.8333333"
     inkscape:cx="9.1525424"
     inkscape:cy="12.610169"
     inkscape:window-x="0"
     inkscape:window-y="27"
     inkscape:window-maximized="0"
     inkscape:current-layer="svg4" />
  <path
     d="M 12,2 C 17.514,2 22,6.486 22,12 22,17.514 17.514,22 12,22 6.486,22 2,17.514 2,12 2,6.486 6.486,2 12,2 Z M 12,0 C 5.373,0 0,5.373 0,12 0,18.627 5.373,24 12,24 18.627,24 24,18.627 24,12 24,5.373 18.627,0 12,0 Z"
     id="path1106"
     inkscape:connector-curvature="0"
     sodipodi:nodetypes="ssssssssss" />
  <path
     inkscape:connector-curvature="0"
     d="m 16.830508,13.060509 c -1.430881,0 -2.59322,1.101419 -2.59322,2.459745 0,1.358327 1.162339,2.459746 2.59322,2.459746 1.430882,0 2.59322,-1.101419 2.59322,-2.459746 0,-1.358326 -1.162338,-2.459745 -2.59322,-2.459745 z m 1.440678,2.73305 H 17.118644 V 16.88678 H 16.542373 V 15.793559 H 15.38983 v -0.54661 h 1.152543 v -1.09322 h 0.576271 v 1.09322 h 1.152542 z M 14.133559,17.98 H 5.5961019 l -0.00288,-0.678343 c 0,-1.377458 0.114678,-2.172776 1.8313895,-2.548843 C 9.3637624,14.328097 11.278712,13.947657 10.35783,12.33789 7.6303394,7.5665293 9.5798644,4.8613556 12.508474,4.8613556 c 3.890407,0 4.325492,4.1515043 2.097627,7.4770814 -0.744542,1.110165 -1.521355,1.984194 -1.521355,3.181817 0,0.954928 0.401084,1.820759 1.048813,2.459746 z"
     id="path2"
     style="stroke-width:0.56124479" />
</svg>
