<?xml version="1.0" encoding="UTF-8" standalone="no"?>
<svg
   xmlns:dc="http://purl.org/dc/elements/1.1/"
   xmlns:cc="http://creativecommons.org/ns#"
   xmlns:rdf="http://www.w3.org/1999/02/22-rdf-syntax-ns#"
   xmlns:svg="http://www.w3.org/2000/svg"
   xmlns="http://www.w3.org/2000/svg"
   xmlns:sodipodi="http://sodipodi.sourceforge.net/DTD/sodipodi-0.dtd"
   xmlns:inkscape="http://www.inkscape.org/namespaces/inkscape"
   width="24"
   height="24"
   fill-rule="evenodd"
   clip-rule="evenodd"
   version="1.1"
   id="svg829"
   sodipodi:docname="strat_1c2b2d.svg"
   inkscape:version="0.92.5 (2060ec1f9f, 2020-04-08)">
  <metadata
     id="metadata835">
    <rdf:RDF>
      <cc:Work
         rdf:about="">
        <dc:format>image/svg+xml</dc:format>
        <dc:type
           rdf:resource="http://purl.org/dc/dcmitype/StillImage" />
        <dc:title></dc:title>
      </cc:Work>
    </rdf:RDF>
  </metadata>
  <defs
     id="defs833" />
  <sodipodi:namedview
     pagecolor="#ffffff"
     bordercolor="#666666"
     borderopacity="1"
     objecttolerance="10"
     gridtolerance="10"
     guidetolerance="10"
     inkscape:pageopacity="0"
     inkscape:pageshadow="2"
     inkscape:window-width="779"
     inkscape:window-height="480"
     id="namedview831"
     showgrid="false"
     inkscape:zoom="9.8333333"
     inkscape:cx="12"
     inkscape:cy="12"
     inkscape:window-x="0"
     inkscape:window-y="27"
     inkscape:window-maximized="0"
     inkscape:current-layer="svg829" />
  <path
     d="M19.096 24h-13.19c-1.141 0-1.906-1.016-1.906-2 0-.884.576-1.59 1.314-1.883-.568-3.181 1.627-5.65 3.262-7.374.847-.892 1.646-1.736 1.635-2.279-.006-.272-.329-.623-.634-.623-.708 0-1.846 1.293-3.204 1.293-1.588 0-2.283-1.594-2.344-2.56-.053-.837.288-1.515.914-1.817 1.2-.58 1.558-1.494 1.904-2.379.188-.48.62-1.996 2.273-1.996 1.14 0 1.749.481 1.402-.54-.145-.426-.6-1.224-1.176-1.842 5.998.013 10.711 4.181 10.714 9.546 0 5.59-3.21 7.562-.894 10.466 1.203.118 1.834 1.032 1.834 1.988 0 .984-.764 2-1.904 2zm-12.848-3.004l-.339.004c-.459.005-.925.451-.925 1 0 .423.328 1 .922 1h13.19c.593 0 .921-.577.921-1 0-.442-.278-1-1.089-1h-12.68v-.004zm12.648-12.996c-.616-2.733-2.866-5.978-7.62-6.854 1.215 2.281-.506 2.494-1.515 2.313-1.483-.26-1.644.38-2 1.289-.357.913-.847 2.165-2.397 2.912-.727.352-.258 2.122.614 2.41.637.209 1.307-.177 1.952-.574.524-.322 1.068-.655 1.647-.655.836 0 1.597.78 1.617 1.6.019.96-.831 1.858-1.91 2.995-2.91 3.07-3.314 4.668-2.97 6.564h11.657c-.954-1.587-.723-2.953-.024-5h-1.343c-.239 0-.5-.189-.5-.5 0-.239.189-.5.5-.5h1.686c.107-.32.211-.652.307-1h-1.384c-.239 0-.5-.189-.5-.5s.26-.5.5-.5h1.622c.064-.318.117-.651.157-1h-1.391c-.311 0-.5-.26-.5-.5 0-.239.189-.5.5-.5h1.468l.007-.454c0-.176-.007-.359-.024-.546h-1.67c-.31 0-.5-.26-.5-.5 0-.239.19-.5.5-.5h1.514zm-9.112-1.101c-.78 0-1.416-.601-1.416-1.341 0-.741.636-1.342 1.416-1.342.781 0 1.416.601 1.416 1.342 0 .74-.635 1.341-1.416 1.341zm0-1.683c-.234 0-.431.157-.431.342 0 .185.197.341.431.341.234 0 .433-.156.433-.341 0-.185-.199-.342-.433-.342z"
     id="path827"
     style="fill:#1c2b2d;opacity:0.95;fill-opacity:0.97422683" />
</svg>
