<svg xmlns="http://www.w3.org/2000/svg" xmlns:xlink="http://www.w3.org/1999/xlink" xmlns:lucid="lucid" width="1101" height="1900"><g transform="translate(-629 -180)" lucid:page-tab-id="0_0"><path d="M1040 408c0-3.3 2.7-6 6-6h128c3.3 0 6 2.7 6 6v88c0 3.3-2.7 6-6 6h-128c-3.3 0-6-2.7-6-6z" stroke="#5e5e5e" stroke-width="3" fill="#fff"/><use xlink:href="#a" transform="matrix(1,0,0,1,1052,414) translate(22.907407407407412 29.65277777777778)"/><use xlink:href="#b" transform="matrix(1,0,0,1,1052,414) translate(30.098765432098766 56.31944444444445)"/><path d="M1000 206c0-3.3 2.7-6 6-6h208c3.3 0 6 2.7 6 6v92c0 3.3-2.7 6-6 6h-208c-3.3 0-6-2.7-6-6z" stroke="#5e5e5e" stroke-width="3" fill="#fff"/><use xlink:href="#c" transform="matrix(1,0,0,1,1012,212) translate(62.90740740740741 17.77777777777778)"/><use xlink:href="#d" transform="matrix(1,0,0,1,1012,212) translate(25.59259259259261 44.44444444444444)"/><use xlink:href="#e" transform="matrix(1,0,0,1,1012,212) translate(74.57407407407408 71.11111111111111)"/><path d="M1110 306.5V382" stroke="#5e5e5e" stroke-width="2" fill="none"/><path d="M1111 306.53h-2v-1.03h2z" fill="#5e5e5e"/><path d="M1110 397.26l-4.64-14.26h9.28z" stroke="#5e5e5e" stroke-width="2" fill="#5e5e5e"/><path d="M1409 1180h-213c-3.3 0-6 2.7-6 6v73.92M1408.97 1180h1.03" stroke="#5e5e5e" stroke-width="2" fill="none"/><path d="M1190 1275.18l-4.64-14.26h9.28z" stroke="#5e5e5e" stroke-width="2" fill="#5e5e5e"/><path d="M1411 1180h213c3.3 0 6 2.7 6 6v73.92M1411.03 1180H1410" stroke="#5e5e5e" stroke-width="2" fill="none"/><path d="M1630 1275.18l-4.64-14.26h9.28z" stroke="#5e5e5e" stroke-width="2" fill="#5e5e5e"/><path d="M1105.33 763.76c2.58-2.08 6.76-2.08 9.34 0l100.66 81.06c2.58 2.08 2.58 5.45 0 7.53l-100.66 81.05c-2.58 2.08-6.76 2.08-9.34 0l-100.66-81.05c-2.58-2.08-2.58-5.45 0-7.53z" stroke="#5e5e5e" stroke-width="3" fill="#fff"/><use xlink:href="#f" transform="matrix(1,0,0,1,1005,765) translate(38.7945061728395 69.92222222222222)"/><use xlink:href="#g" transform="matrix(1,0,0,1,1005,765) translate(54.4624074074074 96.05555555555557)"/><use xlink:href="#h" transform="matrix(1,0,0,1,1005,765) translate(74.18339506172839 122.1888888888889)"/><path d="M1000.27 848.58H940" stroke="#5e5e5e" stroke-width="2" fill="none"/><path d="M1001.2 848.23l.26 1.35h-1.22v-2h1.17z" fill="#5e5e5e"/><path d="M924.74 848.58l14.26-4.63v9.27z" stroke="#5e5e5e" stroke-width="2" fill="#5e5e5e"/><path d="M1218.6 845.26h61.4" stroke="#5e5e5e" stroke-width="2" fill="none"/><path d="M1218.63 846.26h-.35l-.04-.2-1.44-1.8h1.83z" fill="#5e5e5e"/><path d="M1295.26 845.26L1281 849.9v-9.28z" stroke="#5e5e5e" stroke-width="2" fill="#5e5e5e"/><path d="M860 807.42c0-3.32 2.7-6 6-6h228c3.3 0 6 2.68 6 6v48c0 3.3-2.7 6-6 6H866c-3.3 0-6-2.7-6-6z" stroke="#000" stroke-opacity="0" stroke-width="3" fill="#fff" fill-opacity="0"/><use xlink:href="#i" transform="matrix(1,0,0,1,865,806.4173228346044) translate(92.77777777777777 30.27777777777778)"/><path d="M1120 807.42c0-3.32 2.7-6 6-6h228c3.3 0 6 2.68 6 6v48c0 3.3-2.7 6-6 6h-228c-3.3 0-6-2.7-6-6z" stroke="#000" stroke-opacity="0" stroke-width="3" fill="#fff" fill-opacity="0"/><use xlink:href="#j" transform="matrix(1,0,0,1,1125,806.4173228346044) translate(91.60493827160494 30.27777777777778)"/><path d="M1404.73 1482.87c2.9-1.58 7.63-1.58 10.54 0l99.46 54.26c2.9 1.58 2.9 4.16 0 5.74l-99.46 54.26c-2.9 1.58-7.63 1.58-10.54 0l-99.46-54.26c-2.9-1.58-2.9-4.16 0-5.74z" stroke="#5e5e5e" stroke-width="3" fill="#fff"/><use xlink:href="#k" transform="matrix(1,0,0,1,1305,1485) translate(66.20870370370372 45.27777777777778)"/><use xlink:href="#l" transform="matrix(1,0,0,1,1305,1485) translate(46.054382716049396 71.94444444444446)"/><path d="M1330 1686c0-3.3 2.7-6 6-6h148c3.3 0 6 2.7 6 6v108c0 3.3-2.7 6-6 6h-148c-3.3 0-6-2.7-6-6z" stroke="#5e5e5e" stroke-width="3" fill="#fff"/><use xlink:href="#m" transform="matrix(1,0,0,1,1342,1692) translate(36.549382716049394 17.77777777777778)"/><use xlink:href="#n" transform="matrix(1,0,0,1,1342,1692) translate(30.006172839506178 44.44444444444444)"/><use xlink:href="#o" transform="matrix(1,0,0,1,1342,1692) translate(22.012345679012356 71.11111111111111)"/><use xlink:href="#p" transform="matrix(1,0,0,1,1342,1692) translate(0.22222222222222854 97.77777777777777)"/><path d="M1410 1600.8v59.2" stroke="#5e5e5e" stroke-width="2" fill="none"/><path d="M1411 1600.8h-2v-1.07l.63.1 1.37-.15z" fill="#5e5e5e"/><path d="M1410 1675.26l-4.64-14.26h9.28z" stroke="#5e5e5e" stroke-width="2" fill="#5e5e5e"/><path d="M1190 1382.42v42.4c0 3.3 2.7 6 6 6h208c3.3 0 6 2.68 6 6v24.9" stroke="#5e5e5e" stroke-width="2" fill="none"/><path d="M1191 1382.44h-2v-1.02h2z" fill="#5e5e5e"/><path d="M1410 1476.98l-4.64-14.27h9.28z" stroke="#5e5e5e" stroke-width="2" fill="#5e5e5e"/><path d="M1410 1382.42v79.3" stroke="#5e5e5e" stroke-width="2" fill="none"/><path d="M1411 1382.44h-2v-1.02h2z" fill="#5e5e5e"/><path d="M1410 1476.98l-4.64-14.27h9.28z" stroke="#5e5e5e" stroke-width="2" fill="#5e5e5e"/><path d="M1630 1382.42v42.4c0 3.3-2.7 6-6 6h-208c-3.3 0-6 2.68-6 6v24.9" stroke="#5e5e5e" stroke-width="2" fill="none"/><path d="M1631 1382.44h-2v-1.02h2z" fill="#5e5e5e"/><path d="M1410 1476.98l-4.64-14.27h9.28z" stroke="#5e5e5e" stroke-width="2" fill="#5e5e5e"/><path d="M1320 1606c0-3.3 2.7-6 6-6h228c3.3 0 6 2.7 6 6v48c0 3.3-2.7 6-6 6h-228c-3.3 0-6-2.7-6-6z" stroke="#000" stroke-opacity="0" stroke-width="3" fill="#fff" fill-opacity="0"/><use xlink:href="#i" transform="matrix(1,0,0,1,1325,1605) translate(92.77777777777777 30.27777777777778)"/><path d="M1330 1006c0-3.3 2.7-6 6-6h148c3.3 0 6 2.7 6 6v87.92c0 3.3-2.7 6-6 6h-148c-3.3 0-6-2.7-6-6z" stroke="#5e5e5e" stroke-width="3" fill="#fff"/><use xlink:href="#q" transform="matrix(1,0,0,1,1342,1012) translate(6.518518518518512 14.222222222222223)"/><use xlink:href="#r" transform="matrix(1,0,0,1,1342,1012) translate(47.60493827160493 14.222222222222223)"/><use xlink:href="#s" transform="matrix(1,0,0,1,1342,1012) translate(13.950617283950614 35.55555555555556)"/><use xlink:href="#t" transform="matrix(1,0,0,1,1342,1012) translate(21.01234567901235 56.88888888888889)"/><use xlink:href="#u" transform="matrix(1,0,0,1,1342,1012) translate(14.148148148148138 78.22222222222223)"/><path d="M1410 1102.42v157.5" stroke="#5e5e5e" stroke-width="2" fill="none"/><path d="M1411 1102.44h-2v-1.02h2z" fill="#5e5e5e"/><path d="M1410 1275.18l-4.64-14.26h9.28z" stroke="#5e5e5e" stroke-width="2" fill="#5e5e5e"/><path d="M1410 936.34V980" stroke="#5e5e5e" stroke-width="2" fill="none"/><path d="M1411 936.37h-2v-1.03h2z" fill="#5e5e5e"/><path d="M1410 995.26l-4.64-14.26h9.28z" stroke="#5e5e5e" stroke-width="2" fill="#5e5e5e"/><path d="M1180 1486c0-3.3 2.7-6 6-6h228c3.3 0 6 2.7 6 6v48c0 3.3-2.7 6-6 6h-228c-3.3 0-6-2.7-6-6z" stroke="#000" stroke-opacity="0" stroke-width="3" fill="#fff" fill-opacity="0"/><use xlink:href="#j" transform="matrix(1,0,0,1,1185,1485) translate(91.60493827160494 30.27777777777778)"/><path d="M730 1006c0-3.3 2.7-6 6-6h148c3.3 0 6 2.7 6 6v87.92c0 3.3-2.7 6-6 6H736c-3.3 0-6-2.7-6-6z" stroke="#5e5e5e" stroke-width="3" fill="#fff"/><use xlink:href="#q" transform="matrix(1,0,0,1,742,1012) translate(7.5061728395061635 14.222222222222223)"/><use xlink:href="#v" transform="matrix(1,0,0,1,742,1012) translate(48.59259259259258 14.222222222222223)"/><use xlink:href="#s" transform="matrix(1,0,0,1,742,1012) translate(13.950617283950614 35.55555555555556)"/><use xlink:href="#t" transform="matrix(1,0,0,1,742,1012) translate(21.01234567901235 56.88888888888889)"/><use xlink:href="#u" transform="matrix(1,0,0,1,742,1012) translate(14.148148148148138 78.22222222222223)"/><path d="M810 1102.42v157.5" stroke="#5e5e5e" stroke-width="2" fill="none"/><path d="M811 1102.44h-2v-1.02h2z" fill="#5e5e5e"/><path d="M810 1275.18l-4.64-14.26h9.28z" stroke="#5e5e5e" stroke-width="2" fill="#5e5e5e"/><path d="M804.73 1482.87c2.9-1.58 7.63-1.58 10.54 0l99.46 54.26c2.9 1.58 2.9 4.16 0 5.74l-99.46 54.26c-2.9 1.58-7.63 1.58-10.54 0l-99.46-54.26c-2.9-1.58-2.9-4.16 0-5.74z" stroke="#5e5e5e" stroke-width="3" fill="#fff"/><use xlink:href="#k" transform="matrix(1,0,0,1,705,1485) translate(66.20870370370372 45.27777777777778)"/><use xlink:href="#l" transform="matrix(1,0,0,1,705,1485) translate(46.054382716049396 71.94444444444446)"/><path d="M810 1382.42v79.3" stroke="#5e5e5e" stroke-width="2" fill="none"/><path d="M811 1382.44h-2v-1.02h2z" fill="#5e5e5e"/><path d="M810 1476.98l-4.64-14.27h9.28z" stroke="#5e5e5e" stroke-width="2" fill="#5e5e5e"/><path d="M730 1680.67c0-3.32 2.7-6 6-6h148c3.3 0 6 2.68 6 6v118.66c0 3.32-2.7 6-6 6H736c-3.3 0-6-2.68-6-6z" stroke="#5e5e5e" stroke-width="3" fill="#fff"/><use xlink:href="#w" transform="matrix(1,0,0,1,742,1686.6666666666667) translate(30.37654320987655 17.77777777777778)"/><use xlink:href="#n" transform="matrix(1,0,0,1,742,1686.6666666666667) translate(30.006172839506178 44.44444444444444)"/><use xlink:href="#o" transform="matrix(1,0,0,1,742,1686.6666666666667) translate(22.012345679012356 71.11111111111111)"/><use xlink:href="#p" transform="matrix(1,0,0,1,742,1686.6666666666667) translate(0.22222222222222854 97.77777777777777)"/><path d="M810 1600.8v53.86" stroke="#5e5e5e" stroke-width="2" fill="none"/><path d="M811 1600.8h-2v-1.07l.63.1 1.37-.15z" fill="#5e5e5e"/><path d="M810 1669.93l-4.64-14.27h9.28z" stroke="#5e5e5e" stroke-width="2" fill="#5e5e5e"/><path d="M720 1606c0-3.3 2.7-6 6-6h228c3.3 0 6 2.7 6 6v48c0 3.3-2.7 6-6 6H726c-3.3 0-6-2.7-6-6z" stroke="#000" stroke-opacity="0" stroke-width="3" fill="#fff" fill-opacity="0"/><use xlink:href="#i" transform="matrix(1,0,0,1,725,1605) translate(92.77777777777777 30.27777777777778)"/><path d="M800 1486c0-3.3 2.7-6 6-6h228c3.3 0 6 2.7 6 6v48c0 3.3-2.7 6-6 6H806c-3.3 0-6-2.7-6-6z" stroke="#000" stroke-opacity="0" stroke-width="3" fill="#fff" fill-opacity="0"/><use xlink:href="#j" transform="matrix(1,0,0,1,805,1485) translate(91.60493827160494 30.27777777777778)"/><path d="M810 939.67V980" stroke="#5e5e5e" stroke-width="2" fill="none"/><path d="M811 939.7h-2v-1.03h2z" fill="#5e5e5e"/><path d="M810 995.26L805.36 981h9.28z" stroke="#5e5e5e" stroke-width="2" fill="#5e5e5e"/><path d="M1110 703.7v38.56" stroke="#5e5e5e" stroke-width="2" fill="none"/><path d="M1111 703.73h-2v-1.03h2z" fill="#5e5e5e"/><path d="M1110 757.53l-4.64-14.26h9.28z" stroke="#5e5e5e" stroke-width="2" fill="#5e5e5e"/><path d="M1040 604.8c0-3.3 2.7-6 6-6h128c3.3 0 6 2.7 6 6v90.4c0 3.3-2.7 6-6 6h-128c-3.3 0-6-2.7-6-6z" stroke="#5e5e5e" stroke-width="3" fill="#fff"/><use xlink:href="#x" transform="matrix(1,0,0,1,1052,610.8) translate(19.529629629629632 21.272916666666667)"/><use xlink:href="#y" transform="matrix(1,0,0,1,1052,610.8) translate(1.5222222222222115 42.07291666666667)"/><use xlink:href="#z" transform="matrix(1,0,0,1,1052,610.8) translate(4.290740740740745 62.87291666666667)"/><use xlink:href="#A" transform="matrix(1,0,0,1,1052,610.8) translate(46.61296296296297 62.87291666666667)"/><use xlink:href="#B" transform="matrix(1,0,0,1,1052,610.8) translate(74.20185185185186 62.87291666666667)"/><path d="M1110 504.5v74.3" stroke="#5e5e5e" stroke-width="2" fill="none"/><path d="M1111 504.53h-2v-1.03h2z" fill="#5e5e5e"/><path d="M1110 594.06l-4.64-14.26h9.28z" stroke="#5e5e5e" stroke-width="2" fill="#5e5e5e"/><path d="M740 1285.92c0-3.32 2.7-6 6-6h128c3.3 0 6 2.68 6 6v88c0 3.3-2.7 6-6 6H746c-3.3 0-6-2.7-6-6z" stroke="#5e5e5e" stroke-width="3" fill="#fff"/><use xlink:href="#C" transform="matrix(1,0,0,1,752,1291.9173228346044) translate(33.95679012345679 41.52777777777778)"/><path d="M1340 1285.92c0-3.32 2.7-6 6-6h128c3.3 0 6 2.68 6 6v88c0 3.3-2.7 6-6 6h-128c-3.3 0-6-2.7-6-6z" stroke="#5e5e5e" stroke-width="3" fill="#fff"/><use xlink:href="#C" transform="matrix(1,0,0,1,1352,1291.9173228346044) translate(33.95679012345679 41.52777777777778)"/><path d="M1120 1285.92c0-3.32 2.7-6 6-6h128c3.3 0 6 2.68 6 6v88c0 3.3-2.7 6-6 6h-128c-3.3 0-6-2.7-6-6z" stroke="#5e5e5e" stroke-width="3" fill="#fff"/><use xlink:href="#D" transform="matrix(1,0,0,1,1132,1291.9173228346044) translate(39.51234567901234 41.52777777777778)"/><path d="M1560 1285.92c0-3.32 2.7-6 6-6h128c3.3 0 6 2.68 6 6v88c0 3.3-2.7 6-6 6h-128c-3.3 0-6-2.7-6-6z" stroke="#5e5e5e" stroke-width="3" fill="#fff"/><use xlink:href="#E" transform="matrix(1,0,0,1,1572,1291.9173228346044) translate(-6.111111111111086 42)"/><path d="M892.5 1740h33c3.3 0 6-2.7 6-6v-89.5c0-3.3 2.7-6 6-6H1104c3.3 0 6 2.7 6 6v15.5" stroke="#5e5e5e" stroke-width="2" fill="none"/><path d="M892.53 1741h-1.03v-2h1.03z" fill="#5e5e5e"/><path d="M1110 1675.26l-4.64-14.26h9.28z" stroke="#5e5e5e" stroke-width="2" fill="#5e5e5e"/><path d="M919.16 1540H1104c3.3 0 6 2.7 6 6v114" stroke="#5e5e5e" stroke-width="2" fill="none"/><path d="M919.18 1541h-1.1l.14-2h.96z" fill="#5e5e5e"/><path d="M1110 1675.26l-4.64-14.26h9.28z" stroke="#5e5e5e" stroke-width="2" fill="#5e5e5e"/><path d="M1300.84 1540H1116c-3.3 0-6 2.7-6 6v114" stroke="#5e5e5e" stroke-width="2" fill="none"/><path d="M1301.78 1541h-.96v-2h1.1z" fill="#5e5e5e"/><path d="M1110 1675.26l-4.64-14.26h9.28z" stroke="#5e5e5e" stroke-width="2" fill="#5e5e5e"/><path d="M1327.5 1740h-33c-3.3 0-6-2.7-6-6v-89.5c0-3.3-2.7-6-6-6H1116c-3.3 0-6 2.7-6 6v15.5" stroke="#5e5e5e" stroke-width="2" fill="none"/><path d="M1328.5 1741h-1.03v-2h1.03z" fill="#5e5e5e"/><path d="M1110 1675.26l-4.64-14.26h9.28z" stroke="#5e5e5e" stroke-width="2" fill="#5e5e5e"/><path d="M1030 1686c0-3.3 2.7-6 6-6h148c3.3 0 6 2.7 6 6v108c0 3.3-2.7 6-6 6h-148c-3.3 0-6-2.7-6-6z" stroke="#5e5e5e" stroke-width="3" fill="#fff"/><use xlink:href="#F" transform="matrix(1,0,0,1,1042,1692) translate(26.888888888888893 38.77777777777778)"/><use xlink:href="#G" transform="matrix(1,0,0,1,1042,1692) translate(40.098765432098766 65.44444444444446)"/><path d="M904.73 1902.87c2.9-1.58 7.63-1.58 10.54 0l99.46 54.26c2.9 1.58 2.9 4.16 0 5.74l-99.46 54.26c-2.9 1.58-7.63 1.58-10.54 0l-99.46-54.26c-2.9-1.58-2.9-4.16 0-5.74z" stroke="#5e5e5e" stroke-width="3" fill="#fff"/><use xlink:href="#H" transform="matrix(1,0,0,1,805,1905) translate(89.52351851851853 18.23222222222222)"/><use xlink:href="#I" transform="matrix(1,0,0,1,805,1905) translate(47.07907407407409 40.23222222222222)"/><use xlink:href="#J" transform="matrix(1,0,0,1,805,1905) translate(48.955617283950644 61.56555555555555)"/><use xlink:href="#K" transform="matrix(1,0,0,1,805,1905) translate(70.68401234567902 61.56555555555555)"/><use xlink:href="#L" transform="matrix(1,0,0,1,805,1905) translate(137.69635802469134 61.56555555555555)"/><use xlink:href="#M" transform="matrix(1,0,0,1,805,1905) translate(75.12845679012347 82.89888888888888)"/><path d="M1110 1802.5v42.36c0 3.3-2.7 6-6 6H916c-3.3 0-6 2.68-6 6v24.85" stroke="#5e5e5e" stroke-width="2" fill="none"/><path d="M1111 1802.53h-2v-1.03h2z" fill="#5e5e5e"/><path d="M910 1896.98l-4.64-14.27h9.28z" stroke="#5e5e5e" stroke-width="2" fill="#5e5e5e"/><path d="M1294.73 1902.87c2.9-1.58 7.63-1.58 10.54 0l99.46 54.26c2.9 1.58 2.9 4.16 0 5.74l-99.46 54.26c-2.9 1.58-7.63 1.58-10.54 0l-99.46-54.26c-2.9-1.58-2.9-4.16 0-5.74z" stroke="#5e5e5e" stroke-width="3" fill="#fff"/><g><use xlink:href="#N" transform="matrix(1,0,0,1,1195,1905) translate(53.27660493827161 45.27777777777778)"/><use xlink:href="#O" transform="matrix(1,0,0,1,1195,1905) translate(137.042037037037 45.27777777777778)"/><use xlink:href="#P" transform="matrix(1,0,0,1,1195,1905) translate(49.48030864197532 71.94444444444446)"/><use xlink:href="#Q" transform="matrix(1,0,0,1,1195,1905) translate(97.62845679012347 71.94444444444446)"/></g><path d="M1110 1802.5v42.36c0 3.3 2.7 6 6 6h178c3.3 0 6 2.68 6 6v24.85" stroke="#5e5e5e" stroke-width="2" fill="none"/><path d="M1111 1802.53h-2v-1.03h2z" fill="#5e5e5e"/><path d="M1300 1896.98l-4.64-14.27h9.28z" stroke="#5e5e5e" stroke-width="2" fill="#5e5e5e"/><path d="M1409.16 1960H1530" stroke="#5e5e5e" stroke-width="2" fill="none"/><path d="M1409.18 1961h-1.1l.14-2h.96z" fill="#5e5e5e"/><path d="M1545.26 1960l-14.26 4.64v-9.28z" stroke="#5e5e5e" stroke-width="2" fill="#5e5e5e"/><path d="M1678 1920c17.67 0 32 17.9 32 40s-14.33 40-32 40h-96c-17.67 0-32-17.9-32-40s14.33-40 32-40z" stroke="#5e5e5e" stroke-width="3" fill="#fff"/><g><use xlink:href="#R" transform="matrix(1,0,0,1,1555,1925) translate(33.12228395061728 26.52777777777778)"/><use xlink:href="#S" transform="matrix(1,0,0,1,1555,1925) translate(86.08524691358025 26.52777777777778)"/><use xlink:href="#T" transform="matrix(1,0,0,1,1555,1925) translate(17.690185185185186 53.19444444444445)"/></g><path d="M1280 1906c0-3.3 2.7-6 6-6h228c3.3 0 6 2.7 6 6v48c0 3.3-2.7 6-6 6h-228c-3.3 0-6-2.7-6-6z" stroke="#000" stroke-opacity="0" stroke-width="3" fill="#fff" fill-opacity="0"/><g><use xlink:href="#j" transform="matrix(1,0,0,1,1285,1905) translate(91.60493827160494 30.27777777777778)"/></g><path d="M840 2006c0-3.3 2.7-6 6-6h228c3.3 0 6 2.7 6 6v48c0 3.3-2.7 6-6 6H846c-3.3 0-6-2.7-6-6z" stroke="#000" stroke-opacity="0" stroke-width="3" fill="#fff" fill-opacity="0"/><g><use xlink:href="#i" transform="matrix(1,0,0,1,845,2005) translate(92.77777777777777 30.27777777777778)"/></g><path d="M1120 2006c0-3.3 2.7-6 6-6h228c3.3 0 6 2.7 6 6v48c0 3.3-2.7 6-6 6h-228c-3.3 0-6-2.7-6-6z" stroke="#000" stroke-opacity="0" stroke-width="3" fill="#fff" fill-opacity="0"/><g><use xlink:href="#i" transform="matrix(1,0,0,1,1125,2005) translate(92.77777777777777 30.27777777777778)"/></g><path d="M1300 2020.8v33c0 3.3-2.7 6-6 6H646c-3.3 0-6-2.7-6-6V458c0-3.3 2.7-6 6-6h374" stroke="#5e5e5e" stroke-width="2" fill="none"/><path d="M1301 2020.8h-2v-1.07l.63.1 1.37-.15z" fill="#5e5e5e"/><path d="M1035.26 452l-14.26 4.64v-9.28z" stroke="#5e5e5e" stroke-width="2" fill="#5e5e5e"/><path d="M910 2020.8v38" stroke="#5e5e5e" stroke-width="2" fill="none"/><path d="M911 2020.8h-2v-1.07l.63.1 1.37-.15z" fill="#5e5e5e"/><path d="M910 2058.76v1.03" stroke="#5e5e5e" stroke-width="2" fill="none"/><path d="M700 766c0-3.3 2.7-6 6-6h208c3.3 0 6 2.7 6 6v165.17c0 3.3-2.7 6-6 6H706c-3.3 0-6-2.7-6-6z" stroke="#5e5e5e" stroke-width="3" fill="#fff"/><g><use xlink:href="#U" transform="matrix(1,0,0,1,712,772) translate(26.487654320987673 56.27777777777778)"/><use xlink:href="#V" transform="matrix(1,0,0,1,712,772) translate(94.26543209876544 56.27777777777778)"/><use xlink:href="#W" transform="matrix(1,0,0,1,712,772) translate(30.43827160493828 82.94444444444446)"/><use xlink:href="#l" transform="matrix(1,0,0,1,712,772) translate(39.049382716049394 109.61111111111111)"/></g><path d="M1300 762.67c0-3.3 2.7-6 6-6h208c3.3 0 6 2.7 6 6v165.17c0 3.3-2.7 6-6 6h-208c-3.3 0-6-2.7-6-6z" stroke="#5e5e5e" stroke-width="3" fill="#fff"/><g><use xlink:href="#U" transform="matrix(1,0,0,1,1312,768.6748580007261) translate(35.96296296296297 56.27777777777778)"/><use xlink:href="#X" transform="matrix(1,0,0,1,1312,768.6748580007261) translate(103.74074074074073 56.27777777777778)"/><use xlink:href="#W" transform="matrix(1,0,0,1,1312,768.6748580007261) translate(30.43827160493828 82.94444444444446)"/><use xlink:href="#l" transform="matrix(1,0,0,1,1312,768.6748580007261) translate(39.049382716049394 109.61111111111111)"/></g><defs><path fill="#333" d="M30-248c118-7 216 8 213 122C240-48 200 0 122 0H30v-248zM63-27c89 8 146-16 146-99s-60-101-146-95v194" id="Y"/><path fill="#333" d="M140-251c81 0 123 46 123 126C263-46 219 4 140 4 59 4 17-45 17-125s42-126 123-126zm0 227c63 0 89-41 89-101s-29-99-89-99c-61 0-89 39-89 99S79-25 140-24" id="Z"/><path fill="#333" d="M266 0h-40l-56-210L115 0H75L2-248h35L96-30l15-64 43-154h32l59 218 59-218h35" id="aa"/><path fill="#333" d="M190 0L58-211 59 0H30v-248h39L202-35l-2-213h31V0h-41" id="ab"/><g id="a"><use transform="matrix(0.06172839506172839,0,0,0.06172839506172839,0,0)" xlink:href="#Y"/><use transform="matrix(0.06172839506172839,0,0,0.06172839506172839,15.987654320987653,0)" xlink:href="#Z"/><use transform="matrix(0.06172839506172839,0,0,0.06172839506172839,33.2716049382716,0)" xlink:href="#aa"/><use transform="matrix(0.06172839506172839,0,0,0.06172839506172839,54.197530864197525,0)" xlink:href="#ab"/></g><path fill="#333" d="M205 0l-28-72H64L36 0H1l101-248h38L239 0h-34zm-38-99l-47-123c-12 45-31 82-46 123h93" id="ac"/><path fill="#333" d="M127-220V0H93v-220H8v-28h204v28h-85" id="ad"/><g id="b"><use transform="matrix(0.06172839506172839,0,0,0.06172839506172839,0,0)" xlink:href="#Y"/><use transform="matrix(0.06172839506172839,0,0,0.06172839506172839,15.987654320987653,0)" xlink:href="#ac"/><use transform="matrix(0.06172839506172839,0,0,0.06172839506172839,29.1358024691358,0)" xlink:href="#ad"/><use transform="matrix(0.06172839506172839,0,0,0.06172839506172839,40.98765432098765,0)" xlink:href="#ac"/></g><g id="c"><use transform="matrix(0.06172839506172839,0,0,0.06172839506172839,0,0)" xlink:href="#Y"/><use transform="matrix(0.06172839506172839,0,0,0.06172839506172839,15.987654320987653,0)" xlink:href="#Z"/><use transform="matrix(0.06172839506172839,0,0,0.06172839506172839,33.2716049382716,0)" xlink:href="#aa"/><use transform="matrix(0.06172839506172839,0,0,0.06172839506172839,54.197530864197525,0)" xlink:href="#ab"/></g><path fill="#333" d="M33 0v-248h34V0H33" id="ae"/><path fill="#333" d="M185-189c-5-48-123-54-124 2 14 75 158 14 163 119 3 78-121 87-175 55-17-10-28-26-33-46l33-7c5 56 141 63 141-1 0-78-155-14-162-118-5-82 145-84 179-34 5 7 8 16 11 25" id="af"/><path fill="#333" d="M233-177c-1 41-23 64-60 70L243 0h-38l-65-103H63V0H30v-248c88 3 205-21 203 71zM63-129c60-2 137 13 137-47 0-61-80-42-137-45v92" id="ag"/><path fill="#333" d="M232-93c-1 65-40 97-104 97C67 4 28-28 28-90v-158h33c8 89-33 224 67 224 102 0 64-133 71-224h33v155" id="ah"/><path fill="#333" d="M240 0l2-218c-23 76-54 145-80 218h-23L58-218 59 0H30v-248h44l77 211c21-75 51-140 76-211h43V0h-30" id="ai"/><path fill="#333" d="M30 0v-248h187v28H63v79h144v27H63v87h162V0H30" id="aj"/><g id="d"><use transform="matrix(0.06172839506172839,0,0,0.06172839506172839,0,0)" xlink:href="#ae"/><use transform="matrix(0.06172839506172839,0,0,0.06172839506172839,6.172839506172839,0)" xlink:href="#ab"/><use transform="matrix(0.06172839506172839,0,0,0.06172839506172839,22.160493827160494,0)" xlink:href="#af"/><use transform="matrix(0.06172839506172839,0,0,0.06172839506172839,36.9753086419753,0)" xlink:href="#ad"/><use transform="matrix(0.06172839506172839,0,0,0.06172839506172839,50.49382716049382,0)" xlink:href="#ag"/><use transform="matrix(0.06172839506172839,0,0,0.06172839506172839,66.48148148148148,0)" xlink:href="#ah"/><use transform="matrix(0.06172839506172839,0,0,0.06172839506172839,82.46913580246914,0)" xlink:href="#ai"/><use transform="matrix(0.06172839506172839,0,0,0.06172839506172839,100.92592592592592,0)" xlink:href="#aj"/><use transform="matrix(0.06172839506172839,0,0,0.06172839506172839,115.74074074074073,0)" xlink:href="#ab"/><use transform="matrix(0.06172839506172839,0,0,0.06172839506172839,131.72839506172838,0)" xlink:href="#ad"/></g><path fill="#333" d="M30 0v-248h33v221h125V0H30" id="ak"/><g id="e"><use transform="matrix(0.06172839506172839,0,0,0.06172839506172839,0,0)" xlink:href="#ak"/><use transform="matrix(0.06172839506172839,0,0,0.06172839506172839,12.345679012345679,0)" xlink:href="#ae"/><use transform="matrix(0.06172839506172839,0,0,0.06172839506172839,18.51851851851852,0)" xlink:href="#af"/><use transform="matrix(0.06172839506172839,0,0,0.06172839506172839,33.33333333333333,0)" xlink:href="#ad"/></g><path d="M30-248c87 1 191-15 191 75 0 78-77 80-158 76V0H30v-248zm33 125c57 0 124 11 124-50 0-59-68-47-124-48v98" id="al"/><path d="M30 0v-248h33v221h125V0H30" id="am"/><path d="M205 0l-28-72H64L36 0H1l101-248h38L239 0h-34zm-38-99l-47-123c-12 45-31 82-46 123h93" id="an"/><path d="M212-179c-10-28-35-45-73-45-59 0-87 40-87 99 0 60 29 101 89 101 43 0 62-24 78-52l27 14C228-24 195 4 139 4 59 4 22-46 18-125c-6-104 99-153 187-111 19 9 31 26 39 46" id="ao"/><path d="M30 0v-248h187v28H63v79h144v27H63v87h162V0H30" id="ap"/><path d="M240 0l2-218c-23 76-54 145-80 218h-23L58-218 59 0H30v-248h44l77 211c21-75 51-140 76-211h43V0h-30" id="aq"/><path d="M190 0L58-211 59 0H30v-248h39L202-35l-2-213h31V0h-41" id="ar"/><path d="M127-220V0H93v-220H8v-28h204v28h-85" id="as"/><g id="f"><use transform="matrix(0.06049382716049383,0,0,0.06049382716049383,0,0)" xlink:href="#al"/><use transform="matrix(0.06049382716049383,0,0,0.06049382716049383,14.518518518518519,0)" xlink:href="#am"/><use transform="matrix(0.06049382716049383,0,0,0.06049382716049383,26.617283950617285,0)" xlink:href="#an"/><use transform="matrix(0.06049382716049383,0,0,0.06049382716049383,41.135802469135804,0)" xlink:href="#ao"/><use transform="matrix(0.06049382716049383,0,0,0.06049382716049383,56.803703703703704,0)" xlink:href="#ap"/><use transform="matrix(0.06049382716049383,0,0,0.06049382716049383,71.32222222222222,0)" xlink:href="#aq"/><use transform="matrix(0.06049382716049383,0,0,0.06049382716049383,89.40987654320988,0)" xlink:href="#ap"/><use transform="matrix(0.06049382716049383,0,0,0.06049382716049383,103.9283950617284,0)" xlink:href="#ar"/><use transform="matrix(0.06049382716049383,0,0,0.06049382716049383,119.5962962962963,0)" xlink:href="#as"/></g><path d="M233-177c-1 41-23 64-60 70L243 0h-38l-65-103H63V0H30v-248c88 3 205-21 203 71zM63-129c60-2 137 13 137-47 0-61-80-42-137-45v92" id="at"/><path d="M30-248c118-7 216 8 213 122C240-48 200 0 122 0H30v-248zM63-27c89 8 146-16 146-99s-60-101-146-95v194" id="au"/><path d="M137-103V0h-34v-103L8-248h37l75 118 75-118h37" id="av"/><g id="g"><use transform="matrix(0.06049382716049383,0,0,0.06049382716049383,0,0)" xlink:href="#an"/><use transform="matrix(0.06049382716049383,0,0,0.06049382716049383,14.518518518518519,0)" xlink:href="#am"/><use transform="matrix(0.06049382716049383,0,0,0.06049382716049383,26.617283950617285,0)" xlink:href="#at"/><use transform="matrix(0.06049382716049383,0,0,0.06049382716049383,42.285185185185185,0)" xlink:href="#ap"/><use transform="matrix(0.06049382716049383,0,0,0.06049382716049383,56.803703703703704,0)" xlink:href="#an"/><use transform="matrix(0.06049382716049383,0,0,0.06049382716049383,71.32222222222222,0)" xlink:href="#au"/><use transform="matrix(0.06049382716049383,0,0,0.06049382716049383,86.99012345679013,0)" xlink:href="#av"/></g><path d="M140-251c81 0 123 46 123 126C263-46 219 4 140 4 59 4 17-45 17-125s42-126 123-126zm0 227c63 0 89-41 89-101s-29-99-89-99c-61 0-89 39-89 99S79-25 140-24" id="aw"/><g id="h"><use transform="matrix(0.06049382716049383,0,0,0.06049382716049383,0,0)" xlink:href="#aw"/><use transform="matrix(0.06049382716049383,0,0,0.06049382716049383,16.938271604938272,0)" xlink:href="#al"/><use transform="matrix(0.06049382716049383,0,0,0.06049382716049383,31.45679012345679,0)" xlink:href="#ap"/><use transform="matrix(0.06049382716049383,0,0,0.06049382716049383,45.97530864197531,0)" xlink:href="#ar"/></g><path fill="#333" d="M137-103V0h-34v-103L8-248h37l75 118 75-118h37" id="ax"/><g id="i"><use transform="matrix(0.06172839506172839,0,0,0.06172839506172839,0,0)" xlink:href="#ax"/><use transform="matrix(0.06172839506172839,0,0,0.06172839506172839,14.814814814814813,0)" xlink:href="#aj"/><use transform="matrix(0.06172839506172839,0,0,0.06172839506172839,29.629629629629626,0)" xlink:href="#af"/></g><g id="j"><use transform="matrix(0.06172839506172839,0,0,0.06172839506172839,0,0)" xlink:href="#ab"/><use transform="matrix(0.06172839506172839,0,0,0.06172839506172839,15.987654320987653,0)" xlink:href="#Z"/><use transform="matrix(0.06172839506172839,0,0,0.06172839506172839,33.2716049382716,0)" xlink:href="#ad"/></g><path fill="#333" d="M212-179c-10-28-35-45-73-45-59 0-87 40-87 99 0 60 29 101 89 101 43 0 62-24 78-52l27 14C228-24 195 4 139 4 59 4 22-46 18-125c-6-104 99-153 187-111 19 9 31 26 39 46" id="ay"/><path fill="#333" d="M197 0v-115H63V0H30v-248h33v105h134v-105h34V0h-34" id="az"/><path fill="#333" d="M194 0L95-120 63-95V0H30v-248h33v124l119-124h40L117-140 236 0h-42" id="aA"/><g id="k"><use transform="matrix(0.06172839506172839,0,0,0.06172839506172839,0,0)" xlink:href="#ay"/><use transform="matrix(0.06172839506172839,0,0,0.06172839506172839,15.987654320987653,0)" xlink:href="#az"/><use transform="matrix(0.06172839506172839,0,0,0.06172839506172839,31.975308641975307,0)" xlink:href="#aj"/><use transform="matrix(0.06172839506172839,0,0,0.06172839506172839,46.79012345679012,0)" xlink:href="#ay"/><use transform="matrix(0.06172839506172839,0,0,0.06172839506172839,62.77777777777777,0)" xlink:href="#aA"/></g><path fill="#333" d="M143 4C61 4 22-44 18-125c-5-107 100-154 193-111 17 8 29 25 37 43l-32 9c-13-25-37-40-76-40-61 0-88 39-88 99 0 61 29 100 91 101 35 0 62-11 79-27v-45h-74v-28h105v86C228-13 192 4 143 4" id="aB"/><g id="l"><use transform="matrix(0.06172839506172839,0,0,0.06172839506172839,0,0)" xlink:href="#af"/><use transform="matrix(0.06172839506172839,0,0,0.06172839506172839,14.814814814814813,0)" xlink:href="#ad"/><use transform="matrix(0.06172839506172839,0,0,0.06172839506172839,28.33333333333333,0)" xlink:href="#ag"/><use transform="matrix(0.06172839506172839,0,0,0.06172839506172839,44.32098765432098,0)" xlink:href="#ac"/><use transform="matrix(0.06172839506172839,0,0,0.06172839506172839,57.469135802469125,0)" xlink:href="#ad"/><use transform="matrix(0.06172839506172839,0,0,0.06172839506172839,70.98765432098764,0)" xlink:href="#aj"/><use transform="matrix(0.06172839506172839,0,0,0.06172839506172839,85.80246913580245,0)" xlink:href="#aB"/><use transform="matrix(0.06172839506172839,0,0,0.06172839506172839,103.0864197530864,0)" xlink:href="#ax"/></g><g id="m"><use transform="matrix(0.06172839506172839,0,0,0.06172839506172839,0,0)" xlink:href="#aw"/><use transform="matrix(0.06172839506172839,0,0,0.06172839506172839,17.28395061728395,0)" xlink:href="#al"/><use transform="matrix(0.06172839506172839,0,0,0.06172839506172839,32.09876543209876,0)" xlink:href="#ap"/><use transform="matrix(0.06172839506172839,0,0,0.06172839506172839,46.91358024691357,0)" xlink:href="#ar"/></g><path d="M185-189c-5-48-123-54-124 2 14 75 158 14 163 119 3 78-121 87-175 55-17-10-28-26-33-46l33-7c5 56 141 63 141-1 0-78-155-14-162-118-5-82 145-84 179-34 5 7 8 16 11 25" id="aC"/><path d="M194 0L95-120 63-95V0H30v-248h33v124l119-124h40L117-140 236 0h-42" id="aD"/><g id="n"><use transform="matrix(0.06172839506172839,0,0,0.06172839506172839,0,0)" xlink:href="#aC"/><use transform="matrix(0.06172839506172839,0,0,0.06172839506172839,14.814814814814813,0)" xlink:href="#as"/><use transform="matrix(0.06172839506172839,0,0,0.06172839506172839,27.901234567901234,0)" xlink:href="#aw"/><use transform="matrix(0.06172839506172839,0,0,0.06172839506172839,45.18518518518518,0)" xlink:href="#ao"/><use transform="matrix(0.06172839506172839,0,0,0.06172839506172839,61.172839506172835,0)" xlink:href="#aD"/></g><g id="o"><use transform="matrix(0.06172839506172839,0,0,0.06172839506172839,0,0)" xlink:href="#aq"/><use transform="matrix(0.06172839506172839,0,0,0.06172839506172839,18.456790123456788,0)" xlink:href="#an"/><use transform="matrix(0.06172839506172839,0,0,0.06172839506172839,33.2716049382716,0)" xlink:href="#at"/><use transform="matrix(0.06172839506172839,0,0,0.06172839506172839,49.25925925925925,0)" xlink:href="#aD"/><use transform="matrix(0.06172839506172839,0,0,0.06172839506172839,64.07407407407406,0)" xlink:href="#ap"/><use transform="matrix(0.06172839506172839,0,0,0.06172839506172839,78.88888888888887,0)" xlink:href="#as"/></g><g id="p"><use transform="matrix(0.06172839506172839,0,0,0.06172839506172839,0,0)" xlink:href="#al"/><use transform="matrix(0.06172839506172839,0,0,0.06172839506172839,14.814814814814813,0)" xlink:href="#am"/><use transform="matrix(0.06172839506172839,0,0,0.06172839506172839,27.160493827160494,0)" xlink:href="#an"/><use transform="matrix(0.06172839506172839,0,0,0.06172839506172839,41.9753086419753,0)" xlink:href="#ao"/><use transform="matrix(0.06172839506172839,0,0,0.06172839506172839,57.962962962962955,0)" xlink:href="#ap"/><use transform="matrix(0.06172839506172839,0,0,0.06172839506172839,72.77777777777777,0)" xlink:href="#aq"/><use transform="matrix(0.06172839506172839,0,0,0.06172839506172839,91.23456790123456,0)" xlink:href="#ap"/><use transform="matrix(0.06172839506172839,0,0,0.06172839506172839,106.04938271604937,0)" xlink:href="#ar"/><use transform="matrix(0.06172839506172839,0,0,0.06172839506172839,122.03703703703702,0)" xlink:href="#as"/></g><g id="q"><use transform="matrix(0.04938271604938272,0,0,0.04938271604938272,0,0)" xlink:href="#aB"/><use transform="matrix(0.04938271604938272,0,0,0.04938271604938272,13.827160493827162,0)" xlink:href="#aj"/><use transform="matrix(0.04938271604938272,0,0,0.04938271604938272,25.679012345679016,0)" xlink:href="#ad"/></g><path fill="#333" d="M30-248c87 1 191-15 191 75 0 78-77 80-158 76V0H30v-248zm33 125c57 0 124 11 124-50 0-59-68-47-124-48v98" id="aE"/><g id="r"><use transform="matrix(0.04938271604938272,0,0,0.04938271604938272,0,0)" xlink:href="#Z"/><use transform="matrix(0.04938271604938272,0,0,0.04938271604938272,13.827160493827162,0)" xlink:href="#aE"/><use transform="matrix(0.04938271604938272,0,0,0.04938271604938272,25.679012345679016,0)" xlink:href="#aj"/><use transform="matrix(0.04938271604938272,0,0,0.04938271604938272,37.53086419753087,0)" xlink:href="#ab"/><use transform="matrix(0.04938271604938272,0,0,0.04938271604938272,50.320987654320994,0)" xlink:href="#ae"/><use transform="matrix(0.04938271604938272,0,0,0.04938271604938272,55.25925925925927,0)" xlink:href="#ab"/><use transform="matrix(0.04938271604938272,0,0,0.04938271604938272,68.0493827160494,0)" xlink:href="#aB"/></g><g id="s"><use transform="matrix(0.04938271604938272,0,0,0.04938271604938272,0,0)" xlink:href="#aE"/><use transform="matrix(0.04938271604938272,0,0,0.04938271604938272,11.851851851851853,0)" xlink:href="#ak"/><use transform="matrix(0.04938271604938272,0,0,0.04938271604938272,21.7283950617284,0)" xlink:href="#ac"/><use transform="matrix(0.04938271604938272,0,0,0.04938271604938272,33.580246913580254,0)" xlink:href="#ay"/><use transform="matrix(0.04938271604938272,0,0,0.04938271604938272,46.37037037037038,0)" xlink:href="#aj"/><use transform="matrix(0.04938271604938272,0,0,0.04938271604938272,58.222222222222236,0)" xlink:href="#ai"/><use transform="matrix(0.04938271604938272,0,0,0.04938271604938272,72.98765432098767,0)" xlink:href="#aj"/><use transform="matrix(0.04938271604938272,0,0,0.04938271604938272,84.83950617283952,0)" xlink:href="#ab"/><use transform="matrix(0.04938271604938272,0,0,0.04938271604938272,97.62962962962965,0)" xlink:href="#ad"/></g><g id="t"><use transform="matrix(0.04938271604938272,0,0,0.04938271604938272,0,0)" xlink:href="#af"/><use transform="matrix(0.04938271604938272,0,0,0.04938271604938272,11.851851851851853,0)" xlink:href="#ad"/><use transform="matrix(0.04938271604938272,0,0,0.04938271604938272,22.666666666666668,0)" xlink:href="#ag"/><use transform="matrix(0.04938271604938272,0,0,0.04938271604938272,35.45679012345679,0)" xlink:href="#ac"/><use transform="matrix(0.04938271604938272,0,0,0.04938271604938272,45.97530864197531,0)" xlink:href="#ad"/><use transform="matrix(0.04938271604938272,0,0,0.04938271604938272,56.79012345679013,0)" xlink:href="#aj"/><use transform="matrix(0.04938271604938272,0,0,0.04938271604938272,68.64197530864197,0)" xlink:href="#aB"/><use transform="matrix(0.04938271604938272,0,0,0.04938271604938272,82.46913580246914,0)" xlink:href="#ax"/></g><g id="u"><use transform="matrix(0.04938271604938272,0,0,0.04938271604938272,0,0)" xlink:href="#ae"/><use transform="matrix(0.04938271604938272,0,0,0.04938271604938272,4.938271604938272,0)" xlink:href="#ab"/><use transform="matrix(0.04938271604938272,0,0,0.04938271604938272,17.7283950617284,0)" xlink:href="#Y"/><use transform="matrix(0.04938271604938272,0,0,0.04938271604938272,30.518518518518526,0)" xlink:href="#ae"/><use transform="matrix(0.04938271604938272,0,0,0.04938271604938272,35.4567901234568,0)" xlink:href="#ay"/><use transform="matrix(0.04938271604938272,0,0,0.04938271604938272,48.246913580246925,0)" xlink:href="#ac"/><use transform="matrix(0.04938271604938272,0,0,0.04938271604938272,58.76543209876545,0)" xlink:href="#ad"/><use transform="matrix(0.04938271604938272,0,0,0.04938271604938272,69.23456790123458,0)" xlink:href="#Z"/><use transform="matrix(0.04938271604938272,0,0,0.04938271604938272,83.06172839506175,0)" xlink:href="#ag"/><use transform="matrix(0.04938271604938272,0,0,0.04938271604938272,95.85185185185188,0)" xlink:href="#af"/></g><g id="v"><use transform="matrix(0.04938271604938272,0,0,0.04938271604938272,0,0)" xlink:href="#ay"/><use transform="matrix(0.04938271604938272,0,0,0.04938271604938272,12.790123456790125,0)" xlink:href="#ak"/><use transform="matrix(0.04938271604938272,0,0,0.04938271604938272,22.66666666666667,0)" xlink:href="#Z"/><use transform="matrix(0.04938271604938272,0,0,0.04938271604938272,36.49382716049384,0)" xlink:href="#af"/><use transform="matrix(0.04938271604938272,0,0,0.04938271604938272,48.34567901234569,0)" xlink:href="#ae"/><use transform="matrix(0.04938271604938272,0,0,0.04938271604938272,53.28395061728396,0)" xlink:href="#ab"/><use transform="matrix(0.04938271604938272,0,0,0.04938271604938272,66.07407407407409,0)" xlink:href="#aB"/></g><g id="w"><use transform="matrix(0.06172839506172839,0,0,0.06172839506172839,0,0)" xlink:href="#ao"/><use transform="matrix(0.06172839506172839,0,0,0.06172839506172839,15.987654320987653,0)" xlink:href="#am"/><use transform="matrix(0.06172839506172839,0,0,0.06172839506172839,28.333333333333332,0)" xlink:href="#aw"/><use transform="matrix(0.06172839506172839,0,0,0.06172839506172839,45.61728395061728,0)" xlink:href="#aC"/><use transform="matrix(0.06172839506172839,0,0,0.06172839506172839,60.43209876543209,0)" xlink:href="#ap"/></g><path d="M160-131c35 5 61 23 61 61C221 17 115-2 30 0v-248c76 3 177-17 177 60 0 33-19 50-47 57zm-97-11c50-1 110 9 110-42 0-47-63-36-110-37v79zm0 115c55-2 124 14 124-45 0-56-70-42-124-44v89" id="aF"/><path d="M266 0h-40l-56-210L115 0H75L2-248h35L96-30l15-64 43-154h32l59 218 59-218h35" id="aG"/><g id="x"><use transform="matrix(0.04814814814814815,0,0,0.04814814814814815,0,0)" xlink:href="#aF"/><use transform="matrix(0.04814814814814815,0,0,0.04814814814814815,11.555555555555555,0)" xlink:href="#at"/><use transform="matrix(0.04814814814814815,0,0,0.04814814814814815,24.025925925925925,0)" xlink:href="#aw"/><use transform="matrix(0.04814814814814815,0,0,0.04814814814814815,37.507407407407406,0)" xlink:href="#aG"/><use transform="matrix(0.04814814814814815,0,0,0.04814814814814815,53.82962962962963,0)" xlink:href="#aC"/><use transform="matrix(0.04814814814814815,0,0,0.04814814814814815,65.38518518518518,0)" xlink:href="#ap"/></g><path d="M33 0v-248h34V0H33" id="aH"/><path d="M232-93c-1 65-40 97-104 97C67 4 28-28 28-90v-158h33c8 89-33 224 67 224 102 0 64-133 71-224h33v155" id="aI"/><g id="y"><use transform="matrix(0.04814814814814815,0,0,0.04814814814814815,0,0)" xlink:href="#aH"/><use transform="matrix(0.04814814814814815,0,0,0.04814814814814815,4.814814814814815,0)" xlink:href="#ar"/><use transform="matrix(0.04814814814814815,0,0,0.04814814814814815,17.285185185185185,0)" xlink:href="#aC"/><use transform="matrix(0.04814814814814815,0,0,0.04814814814814815,28.840740740740742,0)" xlink:href="#as"/><use transform="matrix(0.04814814814814815,0,0,0.04814814814814815,39.385185185185186,0)" xlink:href="#at"/><use transform="matrix(0.04814814814814815,0,0,0.04814814814814815,51.855555555555554,0)" xlink:href="#aI"/><use transform="matrix(0.04814814814814815,0,0,0.04814814814814815,64.32592592592593,0)" xlink:href="#aq"/><use transform="matrix(0.04814814814814815,0,0,0.04814814814814815,78.72222222222223,0)" xlink:href="#ap"/><use transform="matrix(0.04814814814814815,0,0,0.04814814814814815,90.27777777777779,0)" xlink:href="#ar"/><use transform="matrix(0.04814814814814815,0,0,0.04814814814814815,102.74814814814818,0)" xlink:href="#as"/></g><g id="z"><use transform="matrix(0.04814814814814815,0,0,0.04814814814814815,0,0)" xlink:href="#aw"/><use transform="matrix(0.04814814814814815,0,0,0.04814814814814815,13.481481481481481,0)" xlink:href="#ar"/><use transform="matrix(0.04814814814814815,0,0,0.04814814814814815,25.951851851851846,0)" xlink:href="#ap"/></g><g id="A"><use transform="matrix(0.04814814814814815,0,0,0.04814814814814815,0,0)" xlink:href="#aF"/><use transform="matrix(0.04814814814814815,0,0,0.04814814814814815,11.555555555555555,0)" xlink:href="#av"/></g><g id="B"><use transform="matrix(0.04814814814814815,0,0,0.04814814814814815,0,0)" xlink:href="#aw"/><use transform="matrix(0.04814814814814815,0,0,0.04814814814814815,13.481481481481481,0)" xlink:href="#ar"/><use transform="matrix(0.04814814814814815,0,0,0.04814814814814815,25.951851851851846,0)" xlink:href="#ap"/></g><g id="C"><use transform="matrix(0.06172839506172839,0,0,0.06172839506172839,0,0)" xlink:href="#af"/><use transform="matrix(0.06172839506172839,0,0,0.06172839506172839,14.814814814814813,0)" xlink:href="#ai"/><use transform="matrix(0.06172839506172839,0,0,0.06172839506172839,33.2716049382716,0)" xlink:href="#ac"/></g><g id="D"><use transform="matrix(0.06172839506172839,0,0,0.06172839506172839,0,0)" xlink:href="#ag"/><use transform="matrix(0.06172839506172839,0,0,0.06172839506172839,15.987654320987653,0)" xlink:href="#af"/><use transform="matrix(0.06172839506172839,0,0,0.06172839506172839,30.80246913580247,0)" xlink:href="#ae"/></g><g id="E"><use transform="matrix(0.055555555555555546,0,0,0.055555555555555546,0,0)" xlink:href="#af"/><use transform="matrix(0.055555555555555546,0,0,0.055555555555555546,13.33333333333333,0)" xlink:href="#ad"/><use transform="matrix(0.055555555555555546,0,0,0.055555555555555546,25.111111111111107,0)" xlink:href="#Z"/><use transform="matrix(0.055555555555555546,0,0,0.055555555555555546,40.66666666666666,0)" xlink:href="#ay"/><use transform="matrix(0.055555555555555546,0,0,0.055555555555555546,55.05555555555554,0)" xlink:href="#az"/><use transform="matrix(0.055555555555555546,0,0,0.055555555555555546,69.44444444444443,0)" xlink:href="#ac"/><use transform="matrix(0.055555555555555546,0,0,0.055555555555555546,82.77777777777776,0)" xlink:href="#af"/><use transform="matrix(0.055555555555555546,0,0,0.055555555555555546,96.11111111111109,0)" xlink:href="#ad"/><use transform="matrix(0.055555555555555546,0,0,0.055555555555555546,108.27777777777774,0)" xlink:href="#ae"/><use transform="matrix(0.055555555555555546,0,0,0.055555555555555546,113.83333333333331,0)" xlink:href="#ay"/></g><path fill="#333" d="M137 0h-34L2-248h35l83 218 83-218h36" id="aJ"/><g id="F"><use transform="matrix(0.06172839506172839,0,0,0.06172839506172839,0,0)" xlink:href="#af"/><use transform="matrix(0.06172839506172839,0,0,0.06172839506172839,14.814814814814813,0)" xlink:href="#ac"/><use transform="matrix(0.06172839506172839,0,0,0.06172839506172839,27.962962962962962,0)" xlink:href="#aJ"/><use transform="matrix(0.06172839506172839,0,0,0.06172839506172839,42.77777777777777,0)" xlink:href="#ae"/><use transform="matrix(0.06172839506172839,0,0,0.06172839506172839,48.95061728395061,0)" xlink:href="#ab"/><use transform="matrix(0.06172839506172839,0,0,0.06172839506172839,64.93827160493827,0)" xlink:href="#aB"/></g><g id="G"><use transform="matrix(0.06172839506172839,0,0,0.06172839506172839,0,0)" xlink:href="#Y"/><use transform="matrix(0.06172839506172839,0,0,0.06172839506172839,15.987654320987653,0)" xlink:href="#ac"/><use transform="matrix(0.06172839506172839,0,0,0.06172839506172839,29.1358024691358,0)" xlink:href="#ad"/><use transform="matrix(0.06172839506172839,0,0,0.06172839506172839,40.98765432098765,0)" xlink:href="#ac"/></g><g id="H"><use transform="matrix(0.0493827160493827,0,0,0.0493827160493827,0,0)" xlink:href="#ac"/><use transform="matrix(0.0493827160493827,0,0,0.0493827160493827,11.851851851851848,0)" xlink:href="#ak"/><use transform="matrix(0.0493827160493827,0,0,0.0493827160493827,21.728395061728385,0)" xlink:href="#ak"/></g><g id="I"><use transform="matrix(0.0493827160493827,0,0,0.0493827160493827,0,0)" xlink:href="#ae"/><use transform="matrix(0.0493827160493827,0,0,0.0493827160493827,4.9382716049382696,0)" xlink:href="#ab"/><use transform="matrix(0.0493827160493827,0,0,0.0493827160493827,17.72839506172839,0)" xlink:href="#af"/><use transform="matrix(0.0493827160493827,0,0,0.0493827160493827,29.580246913580236,0)" xlink:href="#ad"/><use transform="matrix(0.0493827160493827,0,0,0.0493827160493827,40.39506172839505,0)" xlink:href="#ag"/><use transform="matrix(0.0493827160493827,0,0,0.0493827160493827,53.18518518518517,0)" xlink:href="#ah"/><use transform="matrix(0.0493827160493827,0,0,0.0493827160493827,65.97530864197529,0)" xlink:href="#ai"/><use transform="matrix(0.0493827160493827,0,0,0.0493827160493827,80.74074074074072,0)" xlink:href="#aj"/><use transform="matrix(0.0493827160493827,0,0,0.0493827160493827,92.59259259259257,0)" xlink:href="#ab"/><use transform="matrix(0.0493827160493827,0,0,0.0493827160493827,105.38271604938268,0)" xlink:href="#ad"/></g><g id="J"><use transform="matrix(0.0493827160493827,0,0,0.0493827160493827,0,0)" xlink:href="#ae"/><use transform="matrix(0.0493827160493827,0,0,0.0493827160493827,4.9382716049382696,0)" xlink:href="#af"/></g><g id="K"><use transform="matrix(0.0493827160493827,0,0,0.0493827160493827,0,0)" xlink:href="#ay"/><use transform="matrix(0.0493827160493827,0,0,0.0493827160493827,12.79012345679012,0)" xlink:href="#az"/><use transform="matrix(0.0493827160493827,0,0,0.0493827160493827,25.58024691358024,0)" xlink:href="#aj"/><use transform="matrix(0.0493827160493827,0,0,0.0493827160493827,37.43209876543209,0)" xlink:href="#ay"/><use transform="matrix(0.0493827160493827,0,0,0.0493827160493827,50.22222222222221,0)" xlink:href="#aA"/></g><path fill="#333" d="M160-131c35 5 61 23 61 61C221 17 115-2 30 0v-248c76 3 177-17 177 60 0 33-19 50-47 57zm-97-11c50-1 110 9 110-42 0-47-63-36-110-37v79zm0 115c55-2 124 14 124-45 0-56-70-42-124-44v89" id="aK"/><g id="L"><use transform="matrix(0.0493827160493827,0,0,0.0493827160493827,0,0)" xlink:href="#aK"/><use transform="matrix(0.0493827160493827,0,0,0.0493827160493827,11.851851851851848,0)" xlink:href="#ax"/></g><path fill="#333" d="M33 0v-38h34V0H33" id="aL"/><g id="M"><use transform="matrix(0.0493827160493827,0,0,0.0493827160493827,0,0)" xlink:href="#af"/><use transform="matrix(0.0493827160493827,0,0,0.0493827160493827,11.851851851851848,0)" xlink:href="#ad"/><use transform="matrix(0.0493827160493827,0,0,0.0493827160493827,22.666666666666657,0)" xlink:href="#ag"/><use transform="matrix(0.0493827160493827,0,0,0.0493827160493827,35.45679012345678,0)" xlink:href="#ac"/><use transform="matrix(0.0493827160493827,0,0,0.0493827160493827,45.97530864197529,0)" xlink:href="#ad"/><use transform="matrix(0.0493827160493827,0,0,0.0493827160493827,54.81481481481479,0)" xlink:href="#aL"/></g><g id="N"><use transform="matrix(0.06172839506172839,0,0,0.06172839506172839,0,0)" xlink:href="#ay"/><use transform="matrix(0.06172839506172839,0,0,0.06172839506172839,15.987654320987653,0)" xlink:href="#az"/><use transform="matrix(0.06172839506172839,0,0,0.06172839506172839,31.975308641975307,0)" xlink:href="#aj"/><use transform="matrix(0.06172839506172839,0,0,0.06172839506172839,46.79012345679012,0)" xlink:href="#ay"/><use transform="matrix(0.06172839506172839,0,0,0.06172839506172839,62.77777777777777,0)" xlink:href="#aA"/></g><path fill="#333" d="M63-220v92h138v28H63V0H30v-248h175v28H63" id="aM"/><g id="O"><use transform="matrix(0.06172839506172839,0,0,0.06172839506172839,0,0)" xlink:href="#ae"/><use transform="matrix(0.06172839506172839,0,0,0.06172839506172839,6.172839506172839,0)" xlink:href="#aM"/></g><g id="P"><use transform="matrix(0.06172839506172839,0,0,0.06172839506172839,0,0)" xlink:href="#af"/><use transform="matrix(0.06172839506172839,0,0,0.06172839506172839,14.814814814814813,0)" xlink:href="#aL"/><use transform="matrix(0.06172839506172839,0,0,0.06172839506172839,20.98765432098765,0)" xlink:href="#aj"/><use transform="matrix(0.06172839506172839,0,0,0.06172839506172839,35.80246913580247,0)" xlink:href="#aL"/></g><g id="Q"><use transform="matrix(0.06172839506172839,0,0,0.06172839506172839,0,0)" xlink:href="#Z"/><use transform="matrix(0.06172839506172839,0,0,0.06172839506172839,17.28395061728395,0)" xlink:href="#aE"/><use transform="matrix(0.06172839506172839,0,0,0.06172839506172839,32.09876543209876,0)" xlink:href="#aj"/><use transform="matrix(0.06172839506172839,0,0,0.06172839506172839,46.91358024691357,0)" xlink:href="#ab"/></g><g id="R"><use transform="matrix(0.06172839506172839,0,0,0.06172839506172839,0,0)" xlink:href="#aj"/><use transform="matrix(0.06172839506172839,0,0,0.06172839506172839,14.814814814814813,0)" xlink:href="#ab"/><use transform="matrix(0.06172839506172839,0,0,0.06172839506172839,30.80246913580247,0)" xlink:href="#Y"/></g><g id="S"><use transform="matrix(0.06172839506172839,0,0,0.06172839506172839,0,0)" xlink:href="#Z"/><use transform="matrix(0.06172839506172839,0,0,0.06172839506172839,17.28395061728395,0)" xlink:href="#aM"/></g><g id="T"><use transform="matrix(0.06172839506172839,0,0,0.06172839506172839,0,0)" xlink:href="#aE"/><use transform="matrix(0.06172839506172839,0,0,0.06172839506172839,14.814814814814813,0)" xlink:href="#ag"/><use transform="matrix(0.06172839506172839,0,0,0.06172839506172839,30.80246913580247,0)" xlink:href="#Z"/><use transform="matrix(0.06172839506172839,0,0,0.06172839506172839,48.08641975308642,0)" xlink:href="#aB"/><use transform="matrix(0.06172839506172839,0,0,0.06172839506172839,65.37037037037037,0)" xlink:href="#ag"/><use transform="matrix(0.06172839506172839,0,0,0.06172839506172839,81.35802469135803,0)" xlink:href="#ac"/><use transform="matrix(0.06172839506172839,0,0,0.06172839506172839,96.17283950617283,0)" xlink:href="#ai"/></g><g id="U"><use transform="matrix(0.06172839506172839,0,0,0.06172839506172839,0,0)" xlink:href="#ag"/><use transform="matrix(0.06172839506172839,0,0,0.06172839506172839,15.987654320987653,0)" xlink:href="#aj"/><use transform="matrix(0.06172839506172839,0,0,0.06172839506172839,30.80246913580247,0)" xlink:href="#ac"/><use transform="matrix(0.06172839506172839,0,0,0.06172839506172839,45.61728395061728,0)" xlink:href="#Y"/></g><g id="V"><use transform="matrix(0.06172839506172839,0,0,0.06172839506172839,0,0)" xlink:href="#ay"/><use transform="matrix(0.06172839506172839,0,0,0.06172839506172839,15.987654320987653,0)" xlink:href="#ak"/><use transform="matrix(0.06172839506172839,0,0,0.06172839506172839,28.333333333333332,0)" xlink:href="#Z"/><use transform="matrix(0.06172839506172839,0,0,0.06172839506172839,45.61728395061728,0)" xlink:href="#af"/><use transform="matrix(0.06172839506172839,0,0,0.06172839506172839,60.43209876543209,0)" xlink:href="#aj"/></g><g id="W"><use transform="matrix(0.06172839506172839,0,0,0.06172839506172839,0,0)" xlink:href="#aE"/><use transform="matrix(0.06172839506172839,0,0,0.06172839506172839,14.814814814814813,0)" xlink:href="#ak"/><use transform="matrix(0.06172839506172839,0,0,0.06172839506172839,27.160493827160494,0)" xlink:href="#ac"/><use transform="matrix(0.06172839506172839,0,0,0.06172839506172839,41.9753086419753,0)" xlink:href="#ay"/><use transform="matrix(0.06172839506172839,0,0,0.06172839506172839,57.962962962962955,0)" xlink:href="#aj"/><use transform="matrix(0.06172839506172839,0,0,0.06172839506172839,72.77777777777777,0)" xlink:href="#ai"/><use transform="matrix(0.06172839506172839,0,0,0.06172839506172839,91.23456790123456,0)" xlink:href="#aj"/><use transform="matrix(0.06172839506172839,0,0,0.06172839506172839,106.04938271604937,0)" xlink:href="#ab"/><use transform="matrix(0.06172839506172839,0,0,0.06172839506172839,122.03703703703702,0)" xlink:href="#ad"/></g><g id="X"><use transform="matrix(0.06172839506172839,0,0,0.06172839506172839,0,0)" xlink:href="#ad"/><use transform="matrix(0.06172839506172839,0,0,0.06172839506172839,11.851851851851851,0)" xlink:href="#ac"/><use transform="matrix(0.06172839506172839,0,0,0.06172839506172839,26.666666666666664,0)" xlink:href="#aA"/><use transform="matrix(0.06172839506172839,0,0,0.06172839506172839,41.48148148148148,0)" xlink:href="#aj"/></g></defs></g></svg>